Coordinates
version=1
nRows=27
nColumns=12
inDegrees=yes

Units are S.I. units (second, meters, Newtons, ...)
Angles are in degrees

endheader
time	SC_y	SC_z	SC_x	AC_y	AC_z	AC_x	GH_y	GH_z	GH_yy	EL_x	PS_y
       0.0              -21.19          15.24          25.52          38.12        -0.4451         0.6811          151.7           68.0         -124.5          34.01          127.0
   0.02751              -21.19          15.24          25.52          38.12        -0.4469         0.6828          151.7           68.0         -124.5          34.01          127.0
   0.05503              -21.19          15.24          25.53          38.12        -0.4488         0.6847          151.7           68.0         -124.4          34.02          127.0
   0.08254              -21.19          15.24          25.54          38.13        -0.4508         0.6866          151.6          67.99         -124.4          34.02          127.0
    0.1101              -21.19          15.24          25.55          38.13        -0.4529         0.6886          151.6          67.99         -124.4          34.03          127.0
    0.1376              -21.19          15.24          25.56          38.14        -0.4552         0.6908          151.5          67.98         -124.3          34.04          127.0
    0.1651              -21.19          15.24          25.57          38.14        -0.4577         0.6932          151.5          67.98         -124.3          34.05          127.0
    0.1926               -21.2          15.24          25.58          38.15        -0.4603         0.6957          151.4          67.97         -124.3          34.05          127.0
    0.2201               -21.2          15.25          25.59          38.15        -0.4631         0.6984          151.3          67.97         -124.2          34.06          126.9
    0.2476               -21.2          15.25           25.6          38.16        -0.4661         0.7012          151.3          67.96         -124.2          34.07          126.9
    0.2751               -21.2          15.25          25.62          38.16        -0.4693         0.7043          151.2          67.96         -124.2          34.08          126.9
    0.3026               -21.2          15.25          25.63          38.17        -0.4728         0.7077          151.1          67.95         -124.1          34.09          126.9
    0.3302              -21.21          15.25          25.65          38.18        -0.4765         0.7112          151.0          67.94         -124.0           34.1          126.9
    0.3577              -21.21          15.25          25.66          38.19        -0.4805         0.7151          150.9          67.93         -124.0          34.12          126.9
    0.3852              -21.21          15.26          25.68          38.19        -0.4849         0.7193          150.8          67.93         -123.9          34.13          126.8
    0.4127              -21.21          15.26           25.7           38.2        -0.4896         0.7238          150.7          67.92         -123.9          34.15          126.8
    0.4402              -21.22          15.26          25.72          38.21        -0.4948         0.7288          150.6          67.91         -123.8          34.16          126.8
    0.4677              -21.22          15.26          25.74          38.22        -0.5004         0.7342          150.5          67.89         -123.7          34.18          126.8
    0.4952              -21.22          15.26          25.77          38.24        -0.5065           0.74          150.4          67.88         -123.6           34.2          126.7
    0.5228              -21.23          15.27           25.8          38.25        -0.5132         0.7465          150.2          67.87         -123.5          34.22          126.7
    0.5503              -21.23          15.27          25.83          38.26        -0.5206         0.7535          150.0          67.85         -123.4          34.24          126.7
    0.5778              -21.24          15.27          25.86          38.28        -0.5287         0.7613          149.9          67.84         -123.3          34.27          126.6
    0.6053              -21.24          15.28           25.9           38.3        -0.5376         0.7699          149.7          67.82         -123.2          34.29          126.6
    0.6328              -21.25          15.28          25.94          38.32        -0.5476         0.7794          149.4           67.8         -123.0          34.33          126.5
    0.6603              -21.25          15.29          25.98          38.34        -0.5586           0.79          149.2          67.78         -122.9          34.36          126.5
    0.6878              -21.26          15.29          26.03          38.36        -0.5709         0.8018          148.9          67.76         -122.7           34.4          126.4
    0.7154              -21.27           15.3          26.09          38.39        -0.5847          0.815          148.6          67.73         -122.5          34.44          126.3
